<?xml version="1.0" encoding="UTF-8" standalone="no"?>
<!-- Generator: Adobe Illustrator 24.0.0, SVG Export Plug-In . SVG Version: 6.00 Build 0)  -->

<svg
   version="1.1"
   id="Capa_1"
   x="0px"
   y="0px"
   viewBox="0 0 792 612"
   style="enable-background:new 0 0 792 612;"
   xml:space="preserve"
   sodipodi:docname="logo-empresa-wh.svg"
   inkscape:version="1.2.2 (b0a8486541, 2022-12-01)"
   xmlns:inkscape="http://www.inkscape.org/namespaces/inkscape"
   xmlns:sodipodi="http://sodipodi.sourceforge.net/DTD/sodipodi-0.dtd"
   xmlns="http://www.w3.org/2000/svg"
   xmlns:svg="http://www.w3.org/2000/svg"><defs
   id="defs151" /><sodipodi:namedview
   id="namedview149"
   pagecolor="#ffffff"
   bordercolor="#000000"
   borderopacity="0.25"
   inkscape:showpageshadow="2"
   inkscape:pageopacity="0.0"
   inkscape:pagecheckerboard="0"
   inkscape:deskcolor="#d1d1d1"
   showgrid="false"
   inkscape:zoom="5.5947712"
   inkscape:cx="761.69334"
   inkscape:cy="379.55082"
   inkscape:window-width="1920"
   inkscape:window-height="1052"
   inkscape:window-x="3840"
   inkscape:window-y="0"
   inkscape:window-maximized="1"
   inkscape:current-layer="Capa_1" />
<style
   type="text/css"
   id="style2">
	.st0{fill:#0F3F32;stroke:#0F3F32;stroke-width:0.25;stroke-miterlimit:10;}
	.st1{fill:#E35630;stroke:#E35630;stroke-width:0.25;stroke-miterlimit:10;}
	.st2{fill:#E35630;}
	.st3{fill:#E35630;}
</style>
<path
   class="st0"
   d="m 229.17,240.63 h -10.04 c -6.01,-9.49 -9.74,-15.32 -11.19,-17.49 -1.46,-2.17 -2.98,-4.03 -4.59,-5.58 -1.6,-1.54 -3.11,-2.52 -4.52,-2.93 -1.41,-0.42 -3.29,-0.62 -5.62,-0.62 h -9.22 v 26.63 H 176 V 180.3 h 26.7 c 3.65,0 6.71,0.24 9.18,0.7 2.48,0.48 4.64,1.45 6.51,2.95 1.87,1.5 3.3,3.38 4.3,5.65 1,2.28 1.5,4.68 1.5,7.2 0,4.57 -1.44,8.23 -4.32,10.99 -2.88,2.78 -7.08,4.53 -12.6,5.27 v 0.17 c 4.04,1.79 7.82,5.45 11.36,11 z m -45.19,-33.79 h 17.13 c 3.46,0 6.19,-0.3 8.21,-0.88 2.01,-0.58 3.63,-1.73 4.84,-3.44 1.21,-1.7 1.81,-3.6 1.81,-5.72 0,-2.74 -1,-5.07 -3,-6.99 -2.01,-1.92 -5.32,-2.88 -9.93,-2.88 h -19.05 v 19.91 z"
   id="path4"
   style="fill:#ffffff" />
<path
   class="st0"
   d="m 281.85,240.63 h -45.07 v -60.34 h 43.67 v 7.16 h -35.69 v 18.45 h 33.37 v 7.15 h -33.37 v 20.42 h 37.08 v 7.16 z"
   id="path6" />
<path
   class="st0"
   d="m 293.09,180.29 h 20.82 c 3.65,0 6.79,0.18 9.43,0.56 2.64,0.37 5.15,1.27 7.55,2.71 2.4,1.45 4.5,3.43 6.29,5.95 1.8,2.52 3.21,5.42 4.24,8.71 1.02,3.28 1.55,7.26 1.55,11.92 0,8.89 -2.11,16.2 -6.35,21.92 -4.22,5.72 -11.5,8.58 -21.81,8.58 h -21.73 v -60.35 z m 7.98,53.18 h 12.92 c 2.63,0 4.99,-0.16 7.06,-0.49 2.08,-0.33 4.17,-1.22 6.29,-2.68 2.12,-1.45 3.88,-3.84 5.29,-7.16 1.4,-3.32 2.1,-7.7 2.1,-13.17 0,-3.02 -0.28,-5.83 -0.8,-8.46 -0.53,-2.62 -1.53,-5.01 -2.97,-7.16 -1.44,-2.15 -3.09,-3.72 -4.96,-4.73 -1.86,-1 -3.69,-1.62 -5.45,-1.83 -1.77,-0.23 -4.04,-0.34 -6.81,-0.34 h -12.67 v 46.02 z"
   id="path8" />
<path
   class="st0"
   d="m 381.02,180.29 h 20.82 c 3.65,0 6.79,0.18 9.43,0.56 2.63,0.37 5.15,1.27 7.55,2.71 2.4,1.45 4.5,3.43 6.3,5.95 1.8,2.52 3.2,5.42 4.23,8.71 1.03,3.28 1.54,7.26 1.54,11.92 0,8.89 -2.11,16.2 -6.33,21.92 -4.22,5.72 -11.5,8.58 -21.81,8.58 h -21.73 v -60.35 z m 7.98,53.18 h 12.92 c 2.63,0 4.99,-0.16 7.06,-0.49 2.08,-0.33 4.17,-1.22 6.3,-2.68 2.13,-1.45 3.89,-3.84 5.29,-7.16 1.4,-3.32 2.1,-7.7 2.1,-13.17 0,-3.02 -0.27,-5.83 -0.8,-8.46 -0.53,-2.62 -1.52,-5.01 -2.96,-7.16 -1.44,-2.15 -3.09,-3.72 -4.95,-4.73 -1.87,-1 -3.69,-1.62 -5.46,-1.83 -1.77,-0.23 -4.04,-0.34 -6.81,-0.34 H 389 Z"
   id="path10" />
<path
   class="st0"
   d="M 486.87,240.63 H 441.8 v -60.34 h 43.67 v 7.16 h -35.68 v 18.45 h 33.39 v 7.15 h -33.39 v 20.42 h 37.09 v 7.16 z"
   id="path12" />
<g
   id="g32"
   transform="translate(0,4)">
	<path
   class="st0"
   d="m 211.69,269.65 c -0.34,-3.84 -1.74,-6.72 -4.21,-8.66 -2.47,-1.93 -6.01,-2.9 -10.63,-2.9 -4.16,0 -7.55,0.78 -10.16,2.3 -2.61,1.54 -3.92,3.77 -3.92,6.7 0,2.61 1.01,4.54 3.02,5.82 2.02,1.28 5.87,2.54 11.56,3.8 5.06,1.1 9.18,2.22 12.37,3.38 3.19,1.15 5.92,2.94 8.21,5.37 2.27,2.42 3.4,5.68 3.4,9.76 0,5.18 -2.09,9.48 -6.27,12.91 -4.18,3.42 -9.63,5.14 -16.35,5.14 -8.57,0 -14.99,-1.89 -19.26,-5.67 -4.26,-3.79 -6.51,-8.69 -6.76,-14.72 l 7.66,-0.66 c 0.36,4.82 2.25,8.33 5.67,10.55 3.41,2.21 7.53,3.32 12.37,3.32 4.53,0 8.18,-0.93 10.97,-2.77 2.79,-1.83 4.19,-4.32 4.19,-7.48 0,-3.29 -1.46,-5.68 -4.37,-7.19 -2.92,-1.5 -7.81,-2.99 -14.69,-4.46 -6.87,-1.47 -11.82,-3.54 -14.85,-6.19 -3.02,-2.66 -4.54,-6.11 -4.54,-10.36 0,-4.83 1.92,-8.81 5.75,-11.96 3.83,-3.15 9.06,-4.73 15.66,-4.73 6.77,0 12.22,1.57 16.35,4.71 4.13,3.14 6.31,7.6 6.56,13.38 z"
   id="path14" />
	<path
   class="st0"
   d="m 278.12,312.23 h -45.61 v -60.27 h 44.2 v 7.16 h -36.12 v 18.41 h 33.78 v 7.16 h -33.78 v 20.4 h 37.53 z"
   id="path16" />
	<path
   class="st0"
   d="m 343.3,312.23 h -10.16 c -6.09,-9.47 -9.86,-15.3 -11.33,-17.47 -1.47,-2.16 -3.02,-4.02 -4.64,-5.56 -1.62,-1.55 -3.15,-2.53 -4.58,-2.95 -1.43,-0.4 -3.32,-0.62 -5.68,-0.62 h -9.34 v 26.6 h -8.08 v -60.27 h 27.04 c 3.7,0 6.79,0.24 9.29,0.69 2.5,0.47 4.69,1.46 6.58,2.94 1.89,1.5 3.34,3.39 4.35,5.66 1.02,2.28 1.52,4.67 1.52,7.2 0,4.54 -1.47,8.2 -4.37,10.96 -2.92,2.78 -7.17,4.54 -12.75,5.28 v 0.16 c 4.08,1.79 7.92,5.43 11.49,10.98 z m -45.73,-33.75 h 17.33 c 3.49,0 6.27,-0.29 8.32,-0.88 2.03,-0.59 3.67,-1.74 4.88,-3.44 1.23,-1.7 1.84,-3.6 1.84,-5.71 0,-2.75 -1.02,-5.08 -3.05,-7 -2.03,-1.92 -5.36,-2.87 -10.04,-2.87 h -19.29 v 19.9 z"
   id="path18" />
	<path
   class="st0"
   d="m 397.74,251.96 -23.91,60.27 h -8.25 l -23.65,-60.27 h 8.7 l 15.87,43.78 c 1.19,2.8 2.25,6.08 3.16,9.83 h 0.16 c 0.85,-3.2 1.9,-6.48 3.17,-9.83 l 16.54,-43.78 z"
   id="path20" />
	<path
   class="st0"
   d="m 417.11,312.23 h -8.12 v -60.27 h 8.12 z"
   id="path22" />
	<path
   class="st0"
   d="m 483.13,293.12 c -1.77,6.77 -4.88,11.82 -9.31,15.15 -4.43,3.32 -9.74,4.99 -15.93,4.99 -10,0 -17.27,-3.1 -21.85,-9.27 -4.56,-6.19 -6.85,-13.62 -6.85,-22.32 0,-9.61 2.69,-17.14 8.06,-22.6 5.37,-5.43 12.28,-8.15 20.72,-8.15 5.94,0 11.03,1.49 15.24,4.48 4.22,2.98 7.18,7.36 8.87,13.11 l -7.91,1.86 c -1.33,-4.2 -3.37,-7.35 -6.08,-9.47 -2.73,-2.11 -6.12,-3.17 -10.21,-3.17 -6.66,0 -11.72,2.17 -15.16,6.48 -3.44,4.32 -5.16,10.11 -5.16,17.37 0,8.39 1.81,14.63 5.43,18.71 3.63,4.09 8.35,6.14 14.18,6.14 4.78,0 8.66,-1.29 11.64,-3.83 2.98,-2.56 5.07,-6.38 6.26,-11.52 z"
   id="path24" />
	<path
   class="st0"
   d="m 499.57,312.23 h -8.12 v -60.27 h 8.12 z"
   id="path26" />
	<path
   class="st0"
   d="m 540.61,250.93 c 8.55,0 15.55,2.87 20.99,8.6 5.44,5.72 8.16,13.28 8.16,22.65 0,9.34 -2.74,16.87 -8.21,22.54 -5.48,5.69 -12.46,8.54 -20.94,8.54 -8.81,0 -15.88,-2.95 -21.25,-8.84 -5.36,-5.89 -8.04,-13.09 -8.04,-21.59 0,-9.89 2.72,-17.68 8.15,-23.37 5.42,-5.68 12.47,-8.53 21.14,-8.53 z m -0.09,55.51 c 6.19,0 11.2,-2.14 15.05,-6.42 3.84,-4.28 5.78,-10.22 5.8,-17.84 0,-7.84 -1.96,-13.86 -5.89,-18.09 -3.93,-4.22 -8.86,-6.33 -14.81,-6.33 -6.11,0 -11.13,2.07 -15.07,6.22 -3.95,4.14 -5.92,10.48 -5.92,19.03 0,6.99 1.93,12.64 5.79,16.96 3.87,4.31 8.89,6.47 15.05,6.47 z"
   id="path28" />
	<path
   class="st0"
   d="m 616.49,269.65 c -0.33,-3.84 -1.73,-6.72 -4.2,-8.66 -2.47,-1.93 -6.01,-2.9 -10.61,-2.9 -4.17,0 -7.56,0.78 -10.17,2.3 -2.61,1.54 -3.91,3.77 -3.91,6.7 0,2.61 1,4.54 3.02,5.82 2.01,1.28 5.86,2.54 11.56,3.8 5.05,1.1 9.18,2.22 12.36,3.38 3.19,1.15 5.92,2.94 8.21,5.37 2.28,2.42 3.42,5.68 3.42,9.76 0,5.18 -2.09,9.48 -6.27,12.91 -4.18,3.42 -9.63,5.14 -16.35,5.14 -8.59,0 -15.01,-1.89 -19.27,-5.67 -4.27,-3.79 -6.52,-8.69 -6.77,-14.72 l 7.67,-0.66 c 0.36,4.82 2.25,8.33 5.67,10.55 3.42,2.21 7.54,3.32 12.37,3.32 4.53,0 8.18,-0.93 10.98,-2.77 2.79,-1.83 4.19,-4.32 4.19,-7.48 0,-3.29 -1.46,-5.68 -4.37,-7.19 -2.91,-1.5 -7.82,-2.99 -14.69,-4.46 -6.87,-1.47 -11.82,-3.54 -14.85,-6.19 -3.03,-2.66 -4.54,-6.11 -4.54,-10.36 0,-4.83 1.91,-8.81 5.74,-11.96 3.83,-3.15 9.05,-4.73 15.66,-4.73 6.77,0 12.22,1.57 16.35,4.71 4.13,3.14 6.31,7.6 6.56,13.38 z"
   id="path30" />
</g>
<g
   id="g56"
   transform="translate(0,8)">
	<path
   class="st1"
   d="m 215.21,330.42 h -33.28 v 18.05 h 28.84 v 6.92 h -28.84 v 26.39 h -8.12 v -58.27 h 41.4 z"
   id="path34" />
	<path
   class="st1"
   d="m 235.34,381.77 h -8.17 V 323.5 h 8.17 z"
   id="path36" />
	<path
   class="st1"
   d="m 298.18,381.77 h -8.34 l -32.07,-45.74 h -0.17 v 45.74 h -7.7 V 323.5 h 8.29 l 32.06,45.75 h 0.17 V 323.5 h 7.75 v 58.27 z"
   id="path38" />
	<path
   class="st1"
   d="m 362.31,381.77 h -9.17 l -7.2,-17.73 h -25.62 l -6.78,17.73 h -8.58 l 23.57,-58.27 h 8.75 z m -18.84,-23.84 c -5.02,-12.62 -7.86,-19.78 -8.5,-21.5 -0.64,-1.7 -1.35,-3.99 -2.13,-6.84 h -0.21 c -0.79,3.92 -1.83,7.55 -3.14,10.89 l -6.87,17.45 z"
   id="path40" />
	<path
   class="st1"
   d="m 417.27,381.77 h -8.33 l -32.07,-45.74 h -0.17 v 45.74 H 369 V 323.5 h 8.29 l 32.07,45.75 h 0.17 V 323.5 h 7.74 z"
   id="path42" />
	<path
   class="st1"
   d="m 482.71,363.3 c -1.79,6.54 -4.92,11.42 -9.36,14.63 -4.45,3.23 -9.78,4.83 -16.01,4.83 -10.05,0 -17.36,-2.98 -21.96,-8.96 -4.58,-5.97 -6.88,-13.16 -6.88,-21.56 0,-9.3 2.7,-16.58 8.1,-21.84 5.39,-5.25 12.34,-7.88 20.83,-7.88 5.97,0 11.07,1.44 15.31,4.33 4.25,2.88 7.22,7.12 8.92,12.68 l -7.95,1.79 c -1.34,-4.04 -3.38,-7.09 -6.11,-9.13 -2.74,-2.05 -6.16,-3.06 -10.26,-3.06 -6.7,0 -11.78,2.09 -15.24,6.26 -3.46,4.16 -5.19,9.76 -5.19,16.79 0,8.11 1.82,14.13 5.46,18.08 3.64,3.96 8.4,5.93 14.26,5.93 4.8,0 8.69,-1.24 11.7,-3.71 2.99,-2.45 5.1,-6.16 6.3,-11.12 z"
   id="path44" />
	<path
   class="st1"
   d="m 502.09,381.77 h -8.16 V 323.5 h 8.16 z"
   id="path46" />
	<path
   class="st1"
   d="M 562.5,381.77 H 516.66 V 323.5 h 44.42 v 6.92 h -36.3 v 17.81 h 33.95 v 6.91 h -33.95 v 19.71 h 37.72 z"
   id="path48" />
	<path
   class="st1"
   d="M 628.02,381.77 H 617.8 c -6.1,-9.16 -9.91,-14.79 -11.38,-16.89 -1.48,-2.09 -3.04,-3.88 -4.68,-5.39 -1.63,-1.49 -3.16,-2.44 -4.61,-2.85 -1.43,-0.39 -3.33,-0.59 -5.71,-0.59 h -9.37 v 25.72 h -8.13 V 323.5 h 27.17 c 3.72,0 6.83,0.23 9.34,0.68 2.51,0.44 4.71,1.4 6.61,2.84 1.9,1.44 3.36,3.26 4.38,5.46 1.02,2.19 1.53,4.52 1.53,6.96 0,4.39 -1.46,7.94 -4.4,10.6 -2.93,2.68 -7.2,4.38 -12.81,5.09 v 0.16 c 4.1,1.73 7.95,5.26 11.55,10.61 z m -45.97,-32.63 h 17.42 c 3.51,0 6.29,-0.28 8.35,-0.85 2.05,-0.56 3.69,-1.67 4.92,-3.32 1.23,-1.64 1.84,-3.47 1.84,-5.51 0,-2.66 -1.02,-4.91 -3.06,-6.76 -2.04,-1.85 -5.39,-2.79 -10.09,-2.79 h -19.38 z"
   id="path50" />
	<path
   class="st1"
   d="m 662.43,322.52 c 8.6,0 15.63,2.76 21.1,8.31 5.47,5.53 8.21,12.83 8.21,21.9 0,9.03 -2.75,16.29 -8.25,21.78 -5.5,5.5 -12.51,8.25 -21.06,8.25 -8.85,0 -15.96,-2.85 -21.35,-8.53 -5.38,-5.7 -8.08,-12.67 -8.08,-20.86 0,-9.57 2.74,-17.1 8.18,-22.6 5.47,-5.5 12.54,-8.25 21.25,-8.25 z m -0.09,53.65 c 6.23,0 11.27,-2.08 15.14,-6.2 3.87,-4.14 5.81,-9.89 5.84,-17.24 0,-7.59 -1.97,-13.42 -5.92,-17.49 -3.95,-4.08 -8.91,-6.12 -14.88,-6.12 -6.14,0 -11.2,2 -15.16,6 -3.96,4 -5.94,10.13 -5.94,18.4 0,6.76 1.94,12.23 5.82,16.4 3.87,4.16 8.91,6.25 15.1,6.25 z"
   id="path52" />
	<path
   class="st1"
   d="m 738.71,340.6 c -0.34,-3.71 -1.74,-6.49 -4.23,-8.36 -2.48,-1.87 -6.05,-2.81 -10.67,-2.81 -4.19,0 -7.59,0.74 -10.22,2.23 -2.62,1.49 -3.93,3.64 -3.93,6.48 0,2.52 1.01,4.4 3.04,5.63 2.02,1.23 5.89,2.45 11.62,3.68 5.08,1.05 9.22,2.15 12.43,3.25 3.21,1.12 5.96,2.85 8.25,5.19 2.3,2.35 3.43,5.49 3.43,9.44 0,5.01 -2.1,9.17 -6.29,12.48 -4.21,3.3 -9.68,4.96 -16.44,4.96 -8.63,0 -15.08,-1.83 -19.36,-5.48 -4.28,-3.67 -6.55,-8.4 -6.8,-14.23 l 7.7,-0.63 c 0.36,4.66 2.26,8.06 5.69,10.19 3.43,2.13 7.58,3.19 12.44,3.19 4.55,0 8.22,-0.88 11.03,-2.65 2.81,-1.78 4.21,-4.19 4.21,-7.23 0,-3.19 -1.46,-5.5 -4.4,-6.96 -2.93,-1.46 -7.84,-2.89 -14.75,-4.31 -6.91,-1.43 -11.88,-3.42 -14.92,-5.99 -3.05,-2.57 -4.56,-5.91 -4.56,-10.01 0,-4.66 1.92,-8.53 5.78,-11.57 3.85,-3.05 9.1,-4.56 15.73,-4.56 6.81,0 12.29,1.52 16.44,4.55 4.15,3.03 6.34,7.34 6.6,12.93 z"
   id="path54" />
</g>
<g
   id="g118">
	<path
   class="st2"
   d="M186.36,413.45c-0.11-1.31-0.58-2.29-1.4-2.95c-0.82-0.66-2-0.99-3.54-0.99c-1.38,0-2.51,0.26-3.38,0.78   c-0.86,0.53-1.3,1.28-1.3,2.28c0,0.9,0.34,1.55,1.01,1.99c0.67,0.44,1.95,0.86,3.84,1.3c1.68,0.37,3.05,0.75,4.11,1.14   c1.07,0.39,1.98,1,2.73,1.83c0.76,0.82,1.14,1.94,1.14,3.33c0,1.77-0.69,3.23-2.08,4.41c-1.39,1.17-3.21,1.75-5.44,1.75   c-2.86,0-5-0.65-6.41-1.93c-1.42-1.29-2.17-2.96-2.25-5.01l2.55-0.24c0.12,1.65,0.75,2.85,1.89,3.61c1.14,0.74,2.51,1.13,4.12,1.13   c1.5,0,2.72-0.32,3.65-0.94c0.93-0.63,1.39-1.48,1.39-2.55c0-1.13-0.48-1.94-1.45-2.47c-0.97-0.5-2.6-1-4.89-1.5   c-2.28-0.51-3.93-1.21-4.93-2.11c-1.01-0.92-1.52-2.09-1.52-3.54c0-1.64,0.64-3,1.92-4.08c1.27-1.07,3-1.61,5.2-1.61   c2.26,0,4.07,0.54,5.44,1.61c1.37,1.07,2.11,2.59,2.18,4.56L186.36,413.45z"
   id="path58" />
	<path
   class="st2"
   d="M208.67,427.98H193.5v-20.56h14.7v2.44h-12.02v6.27h11.24v2.44h-11.24v6.95h12.49V427.98z"
   id="path60" />
	<path
   class="st2"
   d="M230.55,427.98h-3.38c-2.03-3.23-3.28-5.23-3.77-5.96c-0.5-0.73-1.01-1.38-1.55-1.9   c-0.54-0.54-1.04-0.87-1.52-1.01c-0.48-0.14-1.11-0.22-1.9-0.22h-3.1v9.09h-2.69v-20.56h8.99c1.23,0,2.27,0.08,3.1,0.23   c0.82,0.16,1.55,0.49,2.18,1c0.63,0.52,1.12,1.16,1.46,1.94c0.33,0.77,0.5,1.59,0.5,2.44c0,1.56-0.48,2.8-1.46,3.75   c-0.97,0.94-2.38,1.54-4.24,1.79v0.06c1.36,0.6,2.63,1.86,3.82,3.74L230.55,427.98z M215.34,416.46h5.76c1.17,0,2.09-0.1,2.77-0.31   c0.68-0.2,1.22-0.58,1.63-1.17c0.41-0.59,0.62-1.23,0.62-1.96c0-0.93-0.35-1.72-1.01-2.38c-0.67-0.65-1.79-0.99-3.34-0.99h-6.42   V416.46z"
   id="path62" />
	<path
   class="st2"
   d="M249.82,407.42l-7.96,20.56h-2.74l-7.87-20.56h2.89l5.28,14.93c0.39,0.96,0.74,2.07,1.05,3.35h0.05   c0.27-1.1,0.63-2.21,1.05-3.35l5.5-14.93H249.82z"
   id="path64" />
	<path
   class="st2"
   d="M255.52,427.98h-2.7v-20.56h2.7V427.98z"
   id="path66" />
	<path
   class="st2"
   d="M277.68,421.46c-0.6,2.31-1.62,4.02-3.1,5.17c-1.47,1.13-3.25,1.7-5.31,1.7c-3.32,0-5.75-1.05-7.27-3.16   c-1.52-2.1-2.28-4.64-2.28-7.61c0-3.28,0.9-5.84,2.68-7.7c1.79-1.86,4.08-2.79,6.9-2.79c1.98,0,3.67,0.52,5.07,1.52   c1.41,1.03,2.39,2.51,2.95,4.48l-2.64,0.63c-0.44-1.43-1.12-2.5-2.02-3.22c-0.91-0.71-2.04-1.09-3.4-1.09   c-2.21,0-3.9,0.74-5.05,2.22c-1.14,1.46-1.71,3.44-1.71,5.92c0,2.85,0.6,4.98,1.8,6.38c1.2,1.38,2.78,2.08,4.72,2.08   c1.59,0,2.88-0.43,3.87-1.3c1-0.87,1.69-2.17,2.09-3.93L277.68,421.46z"
   id="path68" />
	<path
   class="st2"
   d="M284.29,427.98h-2.7v-20.56h2.7V427.98z"
   id="path70" />
	<path
   class="st2"
   d="M298.14,407.07c2.85,0,5.18,0.98,6.99,2.93c1.81,1.96,2.72,4.54,2.72,7.73c0,3.18-0.91,5.75-2.73,7.69   c-1.82,1.94-4.15,2.9-6.98,2.9c-2.93,0-5.28-1-7.07-3.01c-1.79-2.01-2.67-4.45-2.67-7.36c0-3.37,0.9-6.03,2.71-7.96   C292.92,408.04,295.26,407.07,298.14,407.07z M298.12,425.99c2.06,0,3.72-0.73,5-2.19c1.28-1.46,1.93-3.48,1.93-6.08   c0-2.68-0.65-4.74-1.96-6.17c-1.31-1.43-2.95-2.16-4.92-2.16c-2.04,0-3.71,0.71-5.03,2.12c-1.31,1.4-1.97,3.58-1.97,6.5   c0,2.38,0.65,4.3,1.93,5.78C294.4,425.26,296.07,425.99,298.12,425.99z"
   id="path72" />
	<path
   class="st2"
   d="M323.6,413.45c-0.11-1.31-0.58-2.29-1.4-2.95c-0.82-0.66-2-0.99-3.54-0.99c-1.38,0-2.51,0.26-3.38,0.78   c-0.86,0.53-1.3,1.28-1.3,2.28c0,0.9,0.34,1.55,1,1.99c0.67,0.44,1.96,0.86,3.85,1.3c1.67,0.37,3.05,0.75,4.12,1.14   c1.06,0.39,1.97,1,2.73,1.83c0.76,0.82,1.13,1.94,1.13,3.33c0,1.77-0.69,3.23-2.08,4.41c-1.39,1.17-3.21,1.75-5.44,1.75   c-2.86,0-4.99-0.65-6.4-1.93c-1.42-1.29-2.18-2.96-2.26-5.01l2.55-0.24c0.11,1.65,0.74,2.85,1.88,3.61   c1.13,0.74,2.5,1.13,4.12,1.13c1.5,0,2.72-0.32,3.65-0.94c0.93-0.63,1.39-1.48,1.39-2.55c0-1.13-0.49-1.94-1.46-2.47   c-0.96-0.5-2.59-1-4.87-1.5c-2.29-0.51-3.94-1.21-4.95-2.11c-1.01-0.92-1.51-2.09-1.51-3.54c0-1.64,0.64-3,1.91-4.08   c1.28-1.07,3.01-1.61,5.21-1.61c2.25,0,4.07,0.54,5.44,1.61c1.38,1.07,2.1,2.59,2.19,4.56L323.6,413.45z"
   id="path74" />
	<path
   class="st2"
   d="M352.55,409.86h-11.02v6.36h9.55v2.44h-9.55v9.31h-2.69v-20.56h13.71V409.86z"
   id="path76" />
	<path
   class="st2"
   d="M359.41,427.98h-2.7v-20.56h2.7V427.98z"
   id="path78" />
	<path
   class="st2"
   d="M380.42,427.98h-2.76l-10.61-16.14h-0.06v16.14h-2.55v-20.56h2.75l10.61,16.13h0.05v-16.13h2.57V427.98z"
   id="path80" />
	<path
   class="st2"
   d="M401.84,427.98h-3.03l-2.38-6.26h-8.49l-2.24,6.26h-2.85l7.81-20.56h2.9L401.84,427.98z M395.61,419.57   c-1.66-4.46-2.6-6.98-2.81-7.58c-0.21-0.6-0.45-1.4-0.71-2.41h-0.07c-0.25,1.38-0.61,2.65-1.04,3.83l-2.27,6.16H395.61z"
   id="path82" />
	<path
   class="st2"
   d="M420.25,427.98h-2.76l-10.61-16.14h-0.06v16.14h-2.55v-20.56h2.75l10.61,16.13h0.05v-16.13h2.57V427.98z"
   id="path84" />
	<path
   class="st2"
   d="M442.11,421.46c-0.6,2.31-1.63,4.02-3.1,5.17c-1.47,1.13-3.24,1.7-5.3,1.7c-3.32,0-5.75-1.05-7.27-3.16   c-1.53-2.1-2.28-4.64-2.28-7.61c0-3.28,0.89-5.84,2.68-7.7c1.79-1.86,4.08-2.79,6.89-2.79c1.98,0,3.67,0.52,5.07,1.52   c1.41,1.03,2.39,2.51,2.95,4.48l-2.63,0.63c-0.45-1.43-1.12-2.5-2.03-3.22c-0.9-0.71-2.04-1.09-3.39-1.09   c-2.22,0-3.9,0.74-5.05,2.22c-1.15,1.46-1.72,3.44-1.72,5.92c0,2.85,0.61,4.98,1.81,6.38c1.2,1.38,2.78,2.08,4.72,2.08   c1.58,0,2.88-0.43,3.87-1.3c1-0.87,1.69-2.17,2.09-3.93L442.11,421.46z"
   id="path86" />
	<path
   class="st2"
   d="M448.73,427.98h-2.7v-20.56h2.7V427.98z"
   id="path88" />
	<path
   class="st2"
   d="M468.92,427.98h-15.17v-20.56h14.7v2.44h-12.02v6.27h11.24v2.44h-11.24v6.95h12.49V427.98z"
   id="path90" />
	<path
   class="st2"
   d="M490.81,427.98h-3.38c-2.02-3.23-3.28-5.23-3.77-5.96c-0.49-0.73-1.01-1.38-1.54-1.9   c-0.55-0.54-1.04-0.87-1.53-1.01c-0.47-0.14-1.1-0.22-1.89-0.22h-3.11v9.09h-2.69v-20.56h8.99c1.23,0,2.26,0.08,3.09,0.23   c0.83,0.16,1.56,0.49,2.19,1c0.63,0.52,1.11,1.16,1.45,1.94c0.34,0.77,0.51,1.59,0.51,2.44c0,1.56-0.49,2.8-1.46,3.75   c-0.97,0.94-2.38,1.54-4.24,1.79v0.06c1.36,0.6,2.64,1.86,3.82,3.74L490.81,427.98z M475.59,416.46h5.77c1.16,0,2.09-0.1,2.77-0.31   c0.68-0.2,1.22-0.58,1.63-1.17c0.4-0.59,0.6-1.23,0.6-1.96c0-0.93-0.34-1.72-1.01-2.38c-0.67-0.65-1.78-0.99-3.33-0.99h-6.42   V416.46z"
   id="path92" />
	<path
   class="st2"
   d="M502.41,407.07c2.84,0,5.17,0.98,6.98,2.93c1.81,1.96,2.71,4.54,2.71,7.73c0,3.18-0.92,5.75-2.73,7.69   c-1.81,1.94-4.14,2.9-6.97,2.9c-2.93,0-5.29-1-7.07-3.01c-1.79-2.01-2.67-4.45-2.67-7.36c0-3.37,0.9-6.03,2.7-7.96   C497.17,408.04,499.52,407.07,502.41,407.07z M502.38,425.99c2.06,0,3.73-0.73,5.01-2.19c1.28-1.46,1.93-3.48,1.94-6.08   c0-2.68-0.65-4.74-1.97-6.17c-1.31-1.43-2.95-2.16-4.92-2.16c-2.03,0-3.71,0.71-5.02,2.12c-1.31,1.4-1.98,3.58-1.98,6.5   c0,2.38,0.65,4.3,1.93,5.78C498.66,425.26,500.32,425.99,502.38,425.99z"
   id="path94" />
	<path
   class="st2"
   d="M527.86,413.45c-0.11-1.31-0.58-2.29-1.4-2.95c-0.82-0.66-2-0.99-3.53-0.99c-1.39,0-2.52,0.26-3.38,0.78   c-0.88,0.53-1.31,1.28-1.31,2.28c0,0.9,0.34,1.55,1.01,1.99c0.67,0.44,1.95,0.86,3.84,1.3c1.69,0.37,3.06,0.75,4.12,1.14   c1.06,0.39,1.97,1,2.73,1.83c0.76,0.82,1.14,1.94,1.14,3.33c0,1.77-0.7,3.23-2.09,4.41c-1.39,1.17-3.21,1.75-5.45,1.75   c-2.85,0-4.99-0.65-6.4-1.93c-1.42-1.29-2.18-2.96-2.26-5.01l2.55-0.24c0.11,1.65,0.74,2.85,1.88,3.61   c1.13,0.74,2.51,1.13,4.12,1.13c1.5,0,2.71-0.32,3.64-0.94c0.93-0.63,1.4-1.48,1.4-2.55c0-1.13-0.49-1.94-1.46-2.47   c-0.97-0.5-2.59-1-4.89-1.5c-2.28-0.51-3.93-1.21-4.94-2.11c-1-0.92-1.51-2.09-1.51-3.54c0-1.64,0.64-3,1.92-4.08   c1.27-1.07,3-1.61,5.21-1.61c2.25,0,4.06,0.54,5.44,1.61c1.37,1.07,2.1,2.59,2.18,4.56L527.86,413.45z"
   id="path96" />
	<path
   class="st2"
   d="M543.02,407.42h7.66c1.21,0,2.25,0.06,3.13,0.18c0.88,0.12,1.68,0.43,2.44,0.94c0.75,0.51,1.32,1.2,1.7,2.08   c0.39,0.86,0.58,1.79,0.58,2.75c0,1.89-0.61,3.41-1.81,4.56c-1.21,1.14-3.14,1.71-5.81,1.71h-5.2v8.33h-2.68V407.42z M545.7,417.2   h5.22c3.2,0,4.8-1.25,4.8-3.76c0-0.82-0.21-1.54-0.62-2.18c-0.41-0.64-0.92-1.03-1.53-1.18c-0.61-0.15-1.51-0.22-2.69-0.22h-5.18   V417.2z"
   id="path98" />
	<path
   class="st2"
   d="M578.92,427.98h-3.04l-2.38-6.26h-8.49l-2.24,6.26h-2.85l7.8-20.56h2.89L578.92,427.98z M572.68,419.57   c-1.66-4.46-2.59-6.98-2.81-7.58c-0.21-0.6-0.45-1.4-0.71-2.41h-0.07c-0.26,1.38-0.6,2.65-1.03,3.83l-2.27,6.16H572.68z"
   id="path100" />
	<path
   class="st2"
   d="M599.27,427.98h-3.38c-2.03-3.23-3.29-5.23-3.77-5.96c-0.49-0.73-1.01-1.38-1.55-1.9   c-0.54-0.54-1.04-0.87-1.52-1.01c-0.48-0.14-1.11-0.22-1.9-0.22h-3.1v9.09h-2.69v-20.56h9c1.23,0,2.26,0.08,3.09,0.23   c0.84,0.16,1.56,0.49,2.19,1c0.62,0.52,1.11,1.16,1.45,1.94c0.34,0.77,0.51,1.59,0.51,2.44c0,1.56-0.49,2.8-1.46,3.75   c-0.97,0.94-2.39,1.54-4.25,1.79v0.06c1.37,0.6,2.63,1.86,3.83,3.74L599.27,427.98z M584.05,416.46h5.76c1.16,0,2.09-0.1,2.76-0.31   c0.68-0.2,1.23-0.58,1.63-1.17c0.41-0.59,0.61-1.23,0.61-1.96c0-0.93-0.34-1.72-1.01-2.38c-0.68-0.65-1.79-0.99-3.34-0.99h-6.41   V416.46z"
   id="path102" />
	<path
   class="st2"
   d="M618.75,427.98h-3.04l-2.38-6.26h-8.48l-2.25,6.26h-2.84l7.81-20.56h2.89L618.75,427.98z M612.51,419.57   c-1.66-4.46-2.6-6.98-2.81-7.58c-0.21-0.6-0.45-1.4-0.71-2.41h-0.07c-0.26,1.38-0.6,2.65-1.04,3.83l-2.27,6.16H612.51z"
   id="path104" />
	<path
   class="st2"
   d="M646.39,421.46c-0.58,2.31-1.62,4.02-3.09,5.17c-1.48,1.13-3.25,1.7-5.3,1.7c-3.33,0-5.75-1.05-7.27-3.16   c-1.52-2.1-2.29-4.64-2.29-7.61c0-3.28,0.9-5.84,2.69-7.7c1.79-1.86,4.09-2.79,6.89-2.79c1.97,0,3.67,0.52,5.07,1.52   c1.4,1.03,2.38,2.51,2.94,4.48l-2.63,0.63c-0.45-1.43-1.12-2.5-2.03-3.22c-0.9-0.71-2.04-1.09-3.4-1.09c-2.22,0-3.9,0.74-5.05,2.22   c-1.15,1.46-1.71,3.44-1.71,5.92c0,2.85,0.6,4.98,1.81,6.38c1.21,1.38,2.78,2.08,4.72,2.08c1.59,0,2.88-0.43,3.87-1.3   c1-0.87,1.69-2.17,2.09-3.93L646.39,421.46z"
   id="path106" />
	<path
   class="st2"
   d="M667.88,427.98h-3.38c-2.02-3.23-3.28-5.23-3.77-5.96c-0.49-0.73-1.01-1.38-1.55-1.9   c-0.54-0.54-1.04-0.87-1.52-1.01c-0.48-0.14-1.11-0.22-1.9-0.22h-3.11v9.09h-2.68v-20.56h8.99c1.23,0,2.26,0.08,3.1,0.23   c0.83,0.16,1.56,0.49,2.19,1c0.63,0.52,1.11,1.16,1.45,1.94c0.34,0.77,0.5,1.59,0.5,2.44c0,1.56-0.48,2.8-1.45,3.75   c-0.97,0.94-2.38,1.54-4.25,1.79v0.06c1.36,0.6,2.64,1.86,3.83,3.74L667.88,427.98z M652.66,416.46h5.77c1.16,0,2.08-0.1,2.76-0.31   c0.68-0.2,1.23-0.58,1.63-1.17c0.41-0.59,0.61-1.23,0.61-1.96c0-0.93-0.34-1.72-1.01-2.38c-0.67-0.65-1.79-0.99-3.34-0.99h-6.42   V416.46z"
   id="path108" />
	<path
   class="st2"
   d="M685.82,427.98h-15.17v-20.56h14.7v2.44h-12.02v6.27h11.24v2.44h-11.24v6.95h12.49V427.98z"
   id="path110" />
	<path
   class="st2"
   d="M706.93,421.46c-0.59,2.31-1.63,4.02-3.1,5.17c-1.47,1.13-3.24,1.7-5.3,1.7c-3.33,0-5.75-1.05-7.27-3.16   c-1.52-2.1-2.29-4.64-2.29-7.61c0-3.28,0.9-5.84,2.69-7.7c1.78-1.86,4.08-2.79,6.89-2.79c1.98,0,3.67,0.52,5.08,1.52   c1.4,1.03,2.39,2.51,2.95,4.48l-2.64,0.63c-0.45-1.43-1.12-2.5-2.02-3.22c-0.91-0.71-2.04-1.09-3.39-1.09   c-2.22,0-3.91,0.74-5.05,2.22c-1.14,1.46-1.72,3.44-1.72,5.92c0,2.85,0.6,4.98,1.81,6.38c1.2,1.38,2.78,2.08,4.71,2.08   c1.59,0,2.88-0.43,3.87-1.3c1-0.87,1.7-2.17,2.09-3.93L706.93,421.46z"
   id="path112" />
	<path
   class="st2"
   d="M725.65,427.98h-15.18v-20.56h14.7v2.44h-12.01v6.27h11.24v2.44h-11.24v6.95h12.49V427.98z"
   id="path114" />
	<path
   class="st2"
   d="M747.54,427.98h-3.39c-2.02-3.23-3.28-5.23-3.77-5.96c-0.49-0.73-1-1.38-1.54-1.9   c-0.54-0.54-1.04-0.87-1.52-1.01c-0.48-0.14-1.11-0.22-1.9-0.22h-3.1v9.09h-2.69v-20.56h8.99c1.23,0,2.26,0.08,3.09,0.23   c0.84,0.16,1.55,0.49,2.19,1c0.63,0.52,1.11,1.16,1.44,1.94c0.34,0.77,0.51,1.59,0.51,2.44c0,1.56-0.49,2.8-1.46,3.75   c-0.97,0.94-2.38,1.54-4.25,1.79v0.06c1.36,0.6,2.63,1.86,3.83,3.74L747.54,427.98z M732.33,416.46h5.76c1.17,0,2.09-0.1,2.77-0.31   c0.68-0.2,1.22-0.58,1.62-1.17c0.4-0.59,0.61-1.23,0.61-1.96c0-0.93-0.34-1.72-1.01-2.38c-0.68-0.65-1.79-0.99-3.34-0.99h-6.42   V416.46z"
   id="path116" />
</g>
<g
   id="g146">
	<path
   class="st3"
   d="M60.69,421.2c0,4.78-3.88,8.65-8.65,8.65c-4.78,0-8.65-3.88-8.65-8.65c0-4.78,3.87-8.65,8.65-8.65   C56.81,412.55,60.69,416.42,60.69,421.2z"
   id="path120" />
	<path
   class="st3"
   d="M126.75,421.2c0,4.78-3.88,8.65-8.65,8.65c-4.78,0-8.65-3.88-8.65-8.65c0-4.78,3.87-8.65,8.65-8.65   C122.87,412.55,126.75,416.42,126.75,421.2z"
   id="path122" />
	<path
   class="st3"
   d="M93.66,387.57c0,4.78-3.88,8.65-8.65,8.65c-4.78,0-8.65-3.87-8.65-8.65c0-4.78,3.87-8.66,8.65-8.66   C89.78,378.91,93.66,382.79,93.66,387.57z"
   id="path124" />
	<path
   class="st3"
   d="M93.66,355.13c0,4.78-3.88,8.65-8.65,8.65c-4.78,0-8.65-3.87-8.65-8.65c0-4.79,3.87-8.66,8.65-8.66   C89.78,346.47,93.66,350.34,93.66,355.13z"
   id="path126" />
	<path
   class="st3"
   d="M60.69,355.13c0,4.78-3.88,8.65-8.65,8.65c-4.78,0-8.65-3.87-8.65-8.65c0-4.79,3.87-8.66,8.65-8.66   C56.81,346.47,60.69,350.34,60.69,355.13z"
   id="path128" />
	<path
   class="st3"
   d="M126.75,322.03c0,4.78-3.88,8.66-8.65,8.66c-4.78,0-8.65-3.87-8.65-8.66c0-4.78,3.87-8.64,8.65-8.64   C122.87,313.39,126.75,317.25,126.75,322.03z"
   id="path130" />
	<path
   class="st3"
   d="M126.75,289.26c0,4.79-3.88,8.66-8.65,8.66c-4.78,0-8.65-3.87-8.65-8.66c0-4.77,3.87-8.64,8.65-8.64   C122.87,280.62,126.75,284.49,126.75,289.26z"
   id="path132" />
	<path
   class="st3"
   d="M93.66,289.26c0,4.79-3.88,8.66-8.65,8.66c-4.78,0-8.65-3.87-8.65-8.66c0-4.77,3.87-8.64,8.65-8.64   C89.78,280.62,93.66,284.49,93.66,289.26z"
   id="path134" />
	<path
   class="st3"
   d="M93.66,255.85c0,4.78-3.88,8.65-8.65,8.65c-4.78,0-8.65-3.87-8.65-8.65c0-4.78,3.87-8.64,8.65-8.64   C89.78,247.21,93.66,251.08,93.66,255.85z"
   id="path136" />
	<path
   class="st3"
   d="M60.69,255.85c0,4.78-3.88,8.65-8.65,8.65c-4.78,0-8.65-3.87-8.65-8.65c0-4.78,3.87-8.64,8.65-8.64   C56.81,247.21,60.69,251.08,60.69,255.85z"
   id="path138" />
	<path
   class="st3"
   d="M60.69,222.76c0,4.78-3.88,8.66-8.65,8.66c-4.78,0-8.65-3.88-8.65-8.66s3.87-8.65,8.65-8.65   C56.81,214.11,60.69,217.98,60.69,222.76z"
   id="path140" />
	<path
   class="st3"
   d="M126.75,222.76c0,4.78-3.88,8.66-8.65,8.66c-4.78,0-8.65-3.88-8.65-8.66s3.87-8.65,8.65-8.65   C122.87,214.11,126.75,217.98,126.75,222.76z"
   id="path142" />
	<path
   class="st3"
   d="M93.66,190.65c0,4.78-3.88,8.66-8.65,8.66c-4.78,0-8.65-3.87-8.65-8.66c0-4.78,3.87-8.65,8.65-8.65   C89.78,182,93.66,185.87,93.66,190.65z"
   id="path144" />
</g>
<path
   style="fill:#ffffff;stroke-width:0.126387"
   d="m 236.6598,210.45668 v -30.20652 h 21.92816 21.92816 v 3.60204 3.60203 h -17.82058 -17.82058 v 9.16306 9.16306 h 16.6831 16.68309 v 3.66523 3.66522 h -16.68309 -16.6831 v 10.17416 10.17416 h 18.51571 18.5157 v 3.60204 3.60203 H 259.28309 236.6598 Z"
   id="path534" /><path
   style="fill:#ffffff;stroke-width:0.126387"
   d="m 293.02844,210.44932 v -30.21387 l 13.30224,0.048 c 14.21331,0.0513 15.00122,0.0829 18.18681,0.72973 6.61594,1.34331 11.88994,5.8058 15.26941,12.9199 1.6598,3.49404 2.60762,7.07945 3.04835,11.53129 0.19467,1.9663 0.19529,7.28511 0.001,9.22625 -0.69727,6.96939 -2.73076,12.69622 -6.16085,17.35054 -2.97974,4.04324 -7.43783,6.65719 -13.40645,7.86071 -3.5437,0.71455 -4.65299,0.7613 -18.0646,0.7613 H 293.0283 Z m 25.71977,22.76284 c 3.79147,-0.41638 5.64629,-1.03594 8.26385,-2.76035 3.16307,-2.08377 5.79823,-6.51285 6.82071,-11.46401 0.60397,-2.92463 0.70676,-4.19558 0.71038,-8.7839 0.003,-3.56045 -0.0391,-4.66176 -0.22828,-6.00338 -0.47111,-3.34051 -1.04642,-5.40257 -2.10681,-7.55144 -2.47865,-5.02291 -6.34707,-7.97062 -11.50033,-8.76316 -1.69579,-0.26081 -6.92469,-0.42361 -13.74512,-0.42796 l -5.8454,-0.004 v 23.01924 23.01925 l 8.18356,-0.0709 c 4.54714,-0.0394 8.74518,-0.13256 9.44744,-0.20968 z"
   id="path536" /><path
   style="fill:#ffffff;stroke-width:0.126387"
   d="m 380.99384,210.44843 v -30.21476 l 13.36544,0.0536 c 14.02895,0.0562 14.72547,0.0821 17.83271,0.66311 2.40516,0.44972 5.24491,1.62958 7.4763,3.10624 1.48363,0.98183 4.30178,3.75103 5.39319,5.29953 1.73175,2.45701 2.98348,4.93315 4.00542,7.92341 1.43361,4.19486 1.93447,8.06785 1.81033,13.99867 -0.0941,4.49539 -0.51961,7.52894 -1.5566,11.09731 -1.51632,5.21779 -4.40146,10.08237 -7.52943,12.69523 -3.00151,2.50723 -6.35007,4.01644 -10.86456,4.89669 -3.31675,0.64672 -4.56859,0.69577 -17.75674,0.69577 h -12.17606 z m 23.19203,22.88609 c 4.3722,-0.19269 6.3243,-0.56816 8.61577,-1.65716 2.35938,-1.12127 4.44313,-2.88341 5.76623,-4.87625 2.93636,-4.42275 4.15083,-9.90448 3.96899,-17.9148 -0.12512,-5.51173 -0.85008,-9.19394 -2.42914,-12.33804 -2.51514,-5.00793 -6.30364,-7.87751 -11.43458,-8.66105 -1.68792,-0.25776 -7.16552,-0.4278 -13.87151,-0.4306 l -5.71901,-0.002 v 23.00245 23.00244 l 6.22456,-0.004 c 3.42351,-0.002 7.41892,-0.0565 8.87869,-0.12079 z"
   id="path538" /><path
   style="fill:#ffffff;stroke-width:0.126387"
   d="m 441.78603,210.45668 v -30.20652 h 21.86496 21.86497 v 3.60204 3.60203 H 467.69538 449.8748 v 9.16306 9.16306 h 16.68309 16.6831 v 3.66523 3.66522 h -16.6831 -16.68309 v 10.17416 10.17416 h 18.51571 18.5157 v 3.60204 3.60203 h -22.56009 -22.56009 z"
   id="path540" /><path
   style="fill:#ffffff;stroke-width:0.126387"
   d="m 454.86709,317.23691 c -4.72424,-0.46423 -7.72236,-1.20221 -10.80218,-2.65893 -5.46748,-2.58605 -9.66835,-7.48251 -12.36166,-14.40855 -1.62855,-4.18792 -2.38635,-8.21458 -2.51775,-13.37835 -0.29852,-11.73118 3.40314,-20.58282 11.02069,-26.35337 3.668,-2.77864 7.84525,-4.48595 12.82829,-5.24312 1.86072,-0.28274 6.02264,-0.38805 7.89919,-0.19989 6.17955,0.61964 11.1106,2.8258 14.98043,6.70227 1.94875,1.95209 2.99337,3.40774 4.2674,5.94647 0.89642,1.78629 2.03936,4.72748 1.89369,4.87315 -0.0329,0.0329 -1.76043,0.45948 -3.83896,0.94795 -2.07853,0.48847 -3.84412,0.91003 -3.92355,0.93679 -0.083,0.028 -0.29241,-0.36404 -0.49239,-0.92166 -2.40494,-6.7058 -6.75565,-10.55589 -12.95907,-11.46792 -1.74998,-0.25728 -5.63437,-0.19433 -7.30273,0.11836 -4.22066,0.79103 -7.2184,2.31546 -9.7601,4.96325 -4.30939,4.48927 -6.41659,11.35893 -6.13899,20.01369 0.28803,8.97972 2.65648,15.18082 7.25179,18.98671 3.34829,2.7731 6.71359,4.02702 11.34616,4.22761 4.09622,0.17736 7.71942,-0.65084 10.71779,-2.44992 1.30421,-0.78255 3.35329,-2.73451 4.37336,-4.16608 1.40035,-1.96528 2.8302,-5.22529 3.55212,-8.09879 0.0742,-0.29543 0.20385,-0.53613 0.28806,-0.53489 0.46104,0.007 7.85706,2.00294 7.90016,2.13223 0.0597,0.1791 -0.42726,1.80808 -1.081,3.61613 -0.63665,1.7608 -2.20877,4.82831 -3.20685,6.25718 -3.8008,5.44131 -9.38266,8.81612 -16.41387,9.92388 -1.26635,0.19952 -6.28719,0.35695 -7.52003,0.2358 z"
   id="path542" /><path
   style="fill:#ffffff;stroke-width:0.126387"
   d="m 408.92539,286.09596 v -30.20652 h 4.10758 4.10758 v 30.20652 30.20651 h -4.10758 -4.10758 z"
   id="path544" /><path
   style="fill:#ffffff;stroke-width:0.126387"
   d="m 491.32976,286.09596 v -30.20652 h 4.17077 4.17078 v 30.20652 30.20651 h -4.17078 -4.17077 z"
   id="path546" /><path
   style="fill:#ffffff;stroke-width:0.126387"
   d="m 537.9034,317.23735 c -6.29478,-0.63818 -10.76641,-2.27967 -15.00993,-5.50999 -3.24206,-2.46796 -6.40747,-6.36279 -8.35103,-10.27537 -2.13593,-4.29984 -3.08188,-8.34932 -3.20814,-13.73373 -0.20569,-8.77112 1.65523,-15.68013 5.79721,-21.5232 1.05557,-1.4891 3.85943,-4.36686 5.42074,-5.56364 5.00698,-3.83794 10.99892,-5.75221 18.00528,-5.75221 8.29317,0 15.24945,2.75171 20.60109,8.1492 4.79583,4.83693 7.47915,10.73172 8.42926,18.51761 0.21483,1.76055 0.2107,7.48424 -0.007,9.28945 -0.92572,7.6864 -3.67928,13.62818 -8.55133,18.45251 -4.21767,4.17636 -9.35905,6.73177 -15.41683,7.66261 -1.57882,0.2426 -6.38275,0.42128 -7.70962,0.28676 z m 5.21845,-7.00991 c 4.47422,-0.49157 8.13916,-2.14046 11.17159,-5.0262 3.23809,-3.08147 5.1576,-6.59992 6.22268,-11.40618 0.53349,-2.40741 0.7399,-4.55519 0.7399,-7.6991 0,-6.65739 -1.28115,-11.60643 -4.08969,-15.79839 -0.93662,-1.39798 -3.14649,-3.68785 -4.53884,-4.70317 -2.56607,-1.87121 -5.2569,-2.98411 -8.53112,-3.5284 -1.32875,-0.22089 -5.75199,-0.22103 -7.01449,-2.4e-4 -4.65824,0.81467 -7.87322,2.44229 -11.00356,5.57069 -2.24664,2.24525 -3.58659,4.45031 -4.66583,7.67825 -1.03138,3.08474 -1.50454,6.11001 -1.60935,10.28956 -0.13981,5.57591 0.54653,9.3961 2.38026,13.24845 3.10203,6.51686 8.663,10.56804 15.61573,11.37609 1.29967,0.15104 3.94161,0.15037 5.32272,-10e-4 z"
   id="path548" /><path
   style="fill:#ffffff;stroke-width:0.505548"
   d="m 594.88305,316.16337 c -9.13368,-1.98332 -15.43504,-8.14019 -16.73268,-16.34899 -0.39291,-2.48552 -0.38516,-2.50523 1.10128,-2.80252 0.82333,-0.16466 2.46643,-0.29939 3.65134,-0.29939 h 2.15437 l 0.33907,2.2611 c 1.20835,8.05785 12.10962,13.15724 23.13246,10.82087 3.59838,-0.7627 5.99159,-2.03916 7.90144,-4.21437 1.89728,-2.16087 2.30904,-3.56443 1.99735,-6.80823 -0.49475,-5.149 -3.40099,-6.90878 -17.16621,-10.39446 -13.75169,-3.48226 -18.63539,-6.54684 -20.46556,-12.84241 -1.96016,-6.74272 1.59795,-14.26904 8.38195,-17.72998 6.70486,-3.42057 18.27136,-3.33681 25.21658,0.1826 2.96918,1.5046 6.30973,4.6843 7.59955,7.23364 0.87149,1.7225 2.33077,7.20997 1.98949,7.48128 -0.0753,0.0598 -1.73318,0.2508 -3.68422,0.42435 l -3.54735,0.31554 -0.61463,-2.58746 c -1.31532,-5.53718 -5.52858,-8.43316 -12.93952,-8.89397 -6.8789,-0.42773 -13.04872,1.69137 -14.84689,5.09934 -1.1387,2.15812 -1.11704,6.36863 0.0419,8.13733 1.33011,2.03002 5.20296,3.58232 15.32542,6.14271 4.95352,1.25294 10.41224,2.92983 12.13049,3.7264 3.38563,1.56957 7.38569,4.93414 8.55548,7.19627 1.94361,3.75852 1.88158,9.6308 -0.14738,13.95111 -2.11087,4.49475 -8.23604,8.86817 -14.2112,10.14693 -3.55516,0.76085 -11.20768,0.66107 -15.16248,-0.19769 z"
   id="path550" /><path
   style="fill:#ffffff;stroke-width:0.505548"
   d="m 365.21359,314.53305 c -0.28907,-0.76464 -2.31321,-5.9402 -4.49809,-11.50123 -14.08909,-35.85995 -18.20652,-46.39085 -18.20652,-46.56563 0,-0.10867 1.78205,-0.19759 3.96011,-0.19759 h 3.96011 l 8.97393,24.72777 c 4.93566,13.60027 9.20995,25.6576 9.49841,26.79406 0.28847,1.13647 0.66744,2.06099 0.84215,2.05451 0.17472,-0.006 1.14308,-2.56583 2.15192,-5.68742 1.00884,-3.1216 5.42822,-15.17362 9.82084,-26.78227 l 7.98659,-21.10665 h 3.75666 c 3.36527,0 3.72261,0.0922 3.4298,0.88471 -0.17978,0.48659 -5.48244,13.9089 -11.7837,29.82735 l -11.45683,28.94264 h -3.9549 c -3.84999,0 -3.96884,-0.0369 -4.48048,-1.39025 z"
   id="path552" /><path
   style="fill:#ffffff;stroke-width:0.505548"
   d="m 289.93195,286.05638 v -29.86693 l 17.82058,0.1984 c 20.06274,0.22336 20.68636,0.3233 24.84183,3.98109 4.53012,3.98757 6.53287,11.33252 4.64217,17.02489 -1.63306,4.91669 -6.43277,8.8665 -12.42174,10.2222 -1.52929,0.34618 -3.11743,0.72754 -3.5292,0.84748 -0.47993,0.13978 0.12781,0.7636 1.69305,1.73783 3.87206,2.41003 6.58276,5.58393 12.68104,14.848 8.04221,12.21713 7.77199,10.87951 2.19076,10.84464 l -4.69411,-0.0293 -5.8138,-9.10374 c -6.46225,-10.11913 -10.32533,-14.79003 -13.37956,-16.17741 -1.66739,-0.75741 -3.35452,-0.92854 -9.24373,-0.93761 l -7.20406,-0.0111 v 13.14426 13.14425 h -3.79161 -3.79162 z m 33.16184,-4.24373 c 4.31697,-1.282 6.94664,-4.82907 6.94239,-9.36431 -0.003,-3.25421 -0.93531,-5.30793 -3.38629,-7.45993 -2.53738,-2.22784 -5.42926,-2.65323 -18.03753,-2.65323 h -11.09718 v 10.11097 10.11097 h 11.53585 c 8.68675,0 12.15501,-0.18387 14.04276,-0.74447 z"
   id="path554" /><path
   style="fill:#ffffff;stroke-width:0.505548"
   d="M 232.805,286.09595 V 256.2686 h 21.73857 21.73858 v 3.28607 3.28606 h -17.94697 -17.94696 v 9.35265 9.35264 h 16.93587 16.93587 v 3.53884 3.53884 h -16.93587 -16.93587 v 10.36374 10.36374 h 18.70529 18.70528 v 3.28606 3.28606 H 255.30189 232.805 Z"
   id="path556" /><path
   style="fill:#ffffff;stroke-width:0.505548"
   d="m 190.02273,316.18048 c -8.98765,-1.95482 -15.60445,-8.42194 -16.64537,-16.26885 -0.31577,-2.38033 -0.2599,-2.56758 0.85503,-2.86604 0.65608,-0.17562 2.24816,-0.32242 3.53796,-0.32622 2.31204,-0.007 2.35005,0.0198 2.69658,1.88891 0.47765,2.57621 2.5507,6.18598 4.39982,7.66133 0.83796,0.66857 2.92387,1.79796 4.63536,2.50975 2.71248,1.12809 3.85921,1.29648 8.93623,1.31215 5.58312,0.0172 5.96462,-0.051 9.20798,-1.64773 4.33178,-2.13252 5.59608,-3.85168 5.85803,-7.96553 0.42349,-6.65078 -1.94248,-8.2796 -17.9375,-12.34883 -12.147,-3.09028 -16.19317,-5.35938 -18.70261,-10.48849 -3.55341,-7.26292 -0.30163,-15.87051 7.51859,-19.90197 4.66301,-2.40387 13.3695,-3.16195 19.55886,-1.70302 4.12948,0.97339 8.73925,3.42649 10.75664,5.72417 1.92488,2.19232 3.78723,6.15964 4.24498,9.04301 l 0.34111,2.14858 -2.59236,0.0903 c -1.42579,0.0496 -3.07904,0.10652 -3.67389,0.12638 -0.87442,0.0292 -1.19588,-0.41421 -1.67861,-2.31538 -0.32839,-1.29333 -0.9745,-2.92753 -1.4358,-3.63157 -2.43027,-3.70905 -8.06223,-5.70465 -14.76211,-5.23073 -5.20996,0.36854 -7.44787,1.12656 -9.99237,3.3846 -1.90377,1.68946 -2.0799,2.06556 -2.28314,4.87527 -0.44063,6.09169 1.56001,7.53198 15.04955,10.83439 11.93752,2.92244 15.38501,4.38198 19.1692,8.11547 2.7153,2.67893 3.82842,5.61663 3.80417,10.0398 -0.0255,4.64911 -1.19081,7.5166 -4.48653,11.03999 -2.59235,2.77142 -7.16153,5.2366 -11.30119,6.09723 -3.55977,0.74008 -11.23112,0.63988 -15.07861,-0.19695 z"
   id="path558" /><path
   style="fill:#ffffff;stroke-width:0.505548"
   d="m 178.71133,427.6052 c -2.06697,-0.58761 -3.36473,-1.64705 -4.34892,-3.55026 -0.93685,-1.81167 -0.89099,-2.43171 0.17814,-2.40818 0.48659,0.0107 1.34336,0.75008 1.90393,1.64303 2.57913,4.10841 10.86117,3.44648 10.86117,-0.86807 0,-1.85621 -1.1194,-2.63427 -5.87819,-4.08579 -5.2094,-1.58897 -6.76052,-2.89469 -6.76052,-5.69095 0,-2.98211 2.13544,-4.79081 5.98501,-5.06926 4.09106,-0.29592 7.07857,1.35883 7.79894,4.31976 0.22898,0.94115 0.0668,1.13749 -0.9398,1.13749 -0.74434,0 -1.21654,-0.29435 -1.21654,-0.75833 0,-1.64556 -1.91446,-2.78051 -4.69022,-2.78051 -3.30203,0 -4.9152,1.00111 -4.9152,3.0503 0,1.88296 1.23006,2.69325 5.81381,3.82981 4.08448,1.01276 6.8249,3.21331 6.8249,5.48037 0,4.54661 -5.11183,7.31551 -10.61651,5.75059 z"
   id="path1154" /><path
   style="fill:#ffffff;stroke-width:0.178738"
   d="m 193.66297,417.71145 v -10.18809 h 7.2389 7.2389 v 1.1618 1.1618 h -5.98773 -5.98774 v 3.21729 3.21729 h 5.54089 5.54089 v 1.07243 1.07243 h -5.54089 -5.54089 v 3.57477 3.57477 h 6.16648 6.16647 v 1.16179 1.1618 h -7.41764 -7.41764 z"
   id="path1156" /><path
   style="fill:#ffffff;stroke-width:0.178738"
   d="M 212.78797,417.69861 V 407.4977 l 5.94305,0.0575 5.94305,0.0575 0.99496,0.46664 c 2.01702,0.94597 3.02816,2.62947 3.0249,5.03627 -0.002,1.57271 -0.50497,2.78911 -1.5222,3.68224 -0.83735,0.7352 -2.23259,1.40153 -3.25608,1.55501 -0.41847,0.0628 -0.76072,0.16529 -0.76054,0.22786 1.8e-4,0.0626 0.36137,0.34186 0.80264,0.62064 1.18465,0.74842 2.02105,1.79309 4.30672,5.37913 l 2.05851,3.22964 -1.37875,0.0527 c -0.75831,0.029 -1.47189,0.017 -1.58572,-0.0267 -0.11383,-0.0437 -0.95517,-1.27389 -1.86964,-2.7338 -2.88981,-4.61341 -3.94186,-5.7912 -5.49495,-6.15169 -0.3751,-0.0871 -1.58687,-0.16021 -2.69281,-0.16256 l -2.01081,-0.004 v 4.55783 4.55782 h -1.25116 -1.25117 z m 11.71043,-1.73938 c 1.53471,-0.87995 2.11818,-2.80152 1.33922,-4.41062 -0.82022,-1.69436 -2.09925,-2.05563 -7.28534,-2.05777 l -3.26198,-10e-4 v 3.49709 3.49709 l 4.24504,-0.0564 c 4.05078,-0.0538 4.27789,-0.0752 4.96306,-0.46806 z"
   id="path1158" /><path
   style="fill:#ffffff;stroke-width:0.178738"
   d="m 239.17452,427.75745 c -0.0534,-0.0864 -1.75735,-4.49348 -3.78653,-9.79345 -2.02918,-5.29997 -3.76111,-9.82066 -3.84875,-10.04596 -0.15858,-0.40772 -0.15287,-0.40941 1.20745,-0.35748 l 1.36678,0.0522 3.09368,8.75818 c 1.70153,4.817 3.09657,8.89894 3.1001,9.07097 0.0126,0.61253 0.32488,0.29916 0.5344,-0.53621 0.15317,-0.61066 4.99756,-13.98205 6.21659,-17.15888 0.0935,-0.24368 2.55663,-0.3303 2.54128,-0.0894 -0.005,0.0737 -1.75709,4.63826 -3.89419,10.1434 l -3.88563,10.00934 -1.27403,0.0522 c -0.70072,0.0287 -1.31774,-0.0185 -1.37115,-0.10492 z"
   id="path1160" /><path
   style="fill:#ffffff;stroke-width:0.178738"
   d="m 252.82535,417.71145 v -10.18809 h 1.34054 1.34054 v 10.18809 10.18808 h -1.34054 -1.34054 z"
   id="path1162" /><path
   style="fill:#ffffff;stroke-width:0.178738"
   d="m 266.82363,427.98837 c -2.33482,-0.50753 -3.81172,-1.49357 -5.00881,-3.34408 -1.78147,-2.75387 -2.39127,-6.11295 -1.75638,-9.67502 0.83568,-4.6886 4.50063,-7.79008 9.21797,-7.80074 2.2949,-0.005 4.79993,1.0099 6.07946,2.46354 0.68202,0.7748 1.77789,2.73172 1.77789,3.1748 0,0.12195 -0.42227,0.31721 -0.93837,0.4339 -0.51611,0.11669 -1.07914,0.25079 -1.25117,0.29798 -0.19122,0.0525 -0.31279,-0.0127 -0.31279,-0.16772 0,-0.38885 -0.86631,-1.94364 -1.40021,-2.51299 -1.67521,-1.78646 -5.50385,-2.03986 -7.77493,-0.51459 -0.98463,0.66129 -1.9972,2.03633 -2.46424,3.34639 -0.52652,1.47688 -0.67058,5.19872 -0.26781,6.91915 0.77298,3.30178 2.68754,5.13992 5.65602,5.43024 3.01477,0.29486 5.42944,-1.26296 6.35624,-4.10071 0.16533,-0.50623 0.32645,-0.9504 0.35805,-0.98706 0.0316,-0.0367 0.58913,0.0773 1.23898,0.25317 1.12458,0.30441 1.17638,0.34208 1.07471,0.78161 -0.23982,1.03679 -1.41248,3.10193 -2.21738,3.90496 -2.02904,2.02434 -5.12849,2.80119 -8.36723,2.09717 z"
   id="path1164" /><path
   style="fill:#ffffff;stroke-width:0.178738"
   d="m 281.60222,417.71145 v -10.18809 h 1.34054 1.34053 v 10.18809 10.18808 h -1.34053 -1.34054 z"
   id="path1166" /><path
   style="fill:#ffffff;stroke-width:0.178738"
   d="m 295.91179,427.97895 c -1.77665,-0.38525 -2.99586,-1.07138 -4.40441,-2.47869 -2.10796,-2.10609 -2.93437,-4.277 -2.93437,-7.7084 0,-5.47009 2.76537,-9.40668 7.28005,-10.36336 3.54812,-0.75186 6.75336,0.16296 9.03123,2.57763 1.98642,2.10571 2.80844,4.36102 2.80844,7.70532 0,3.4515 -0.85176,5.71775 -2.92741,7.78881 -1.43422,1.43106 -2.62746,2.09206 -4.48806,2.48618 -1.52708,0.32347 -2.84963,0.3212 -4.36547,-0.007 z m 4.84908,-2.39595 c 1.1731,-0.44072 2.54205,-1.65315 3.24195,-2.87128 0.72843,-1.26781 1.07578,-2.88229 1.07578,-5.00027 0,-3.97649 -1.34891,-6.52846 -4.14134,-7.83486 -0.88674,-0.41485 -1.23924,-0.47435 -2.80175,-0.47294 -1.58995,10e-4 -1.9114,0.0586 -2.91022,0.51755 -1.45477,0.66846 -2.8932,2.1867 -3.43766,3.6284 -0.21476,0.56866 -0.47908,1.81933 -0.58738,2.77927 -0.6641,5.88624 2.4219,9.99488 7.29274,9.70943 0.68814,-0.0403 1.70869,-0.24522 2.26788,-0.4553 z"
   id="path1168" /><path
   style="fill:#ffffff;stroke-width:0.178738"
   d="m 317.61799,428.14515 c -1.92491,-0.37906 -2.45491,-0.53349 -3.3132,-0.96542 -1.77135,-0.89141 -3.19903,-2.8756 -3.48231,-4.83972 l -0.11869,-0.82296 0.68666,-0.11345 c 1.35354,-0.22363 1.6534,-0.16031 1.77173,0.37415 0.40753,1.84064 1.15628,2.79121 2.79117,3.54351 1.03694,0.47715 1.29507,0.51939 3.18392,0.52102 1.92819,0.002 2.1219,-0.0315 3.12792,-0.53445 1.57458,-0.78729 2.26606,-2.03882 1.97719,-3.57859 -0.28433,-1.51564 -1.52479,-2.20845 -5.90944,-3.30051 -3.95832,-0.98588 -5.90369,-2.18775 -6.53757,-4.03898 -0.34683,-1.01292 -0.27591,-2.72149 0.15325,-3.69166 1.44894,-3.27558 6.6208,-4.56149 10.68911,-2.6577 1.85182,0.86657 3.06491,2.46082 3.38072,4.44296 l 0.12103,0.75964 h -0.98415 c -0.54128,0 -1.10021,0.0445 -1.24206,0.099 -0.19146,0.0735 -0.28396,-0.0953 -0.35906,-0.65522 -0.14383,-1.07236 -0.93855,-2.12702 -2.00516,-2.66104 -0.79693,-0.39899 -1.11263,-0.44684 -2.948,-0.44684 -1.83511,0 -2.15128,0.0479 -2.94892,0.44684 -1.18744,0.59389 -1.69827,1.37729 -1.69827,2.60443 0,1.74105 0.83352,2.28787 5.14092,3.37261 4.1017,1.03293 5.46763,1.6643 6.61682,3.05846 0.67875,0.82345 0.93309,1.70559 0.93093,3.22881 -0.005,3.50533 -3.27271,6.03362 -7.684,5.94523 -0.54069,-0.0108 -1.14393,-0.0514 -1.34054,-0.0901 z"
   id="path1170" /><path
   style="fill:#ffffff;stroke-width:0.178738"
   d="m 338.97722,417.71145 v -10.18809 h 6.70269 6.70268 v 1.1618 1.1618 h -5.45151 -5.45152 v 3.21729 3.21729 h 4.73656 4.73657 v 1.1618 1.1618 h -4.73657 -4.73656 v 4.6472 4.64719 h -1.25117 -1.25117 z"
   id="path1172" /><path
   style="fill:#ffffff;stroke-width:0.178738"
   d="m 356.85105,417.71145 v -10.18809 h 1.25117 1.25117 v 10.18809 10.18808 h -1.25117 -1.25117 z"
   id="path1174" /><path
   style="fill:#ffffff;stroke-width:0.178738"
   d="m 364.5368,417.71145 v -10.18809 h 1.29814 1.29814 l 5.27049,8.03632 c 2.89877,4.41998 5.33082,8.03943 5.40455,8.04323 0.0737,0.004 0.13405,-3.61255 0.13405,-8.03632 v -8.04323 h 1.1618 1.1618 v 10.18809 10.18808 l -1.29585,-0.01 -1.29585,-0.01 -5.25541,-8.03323 c -2.89048,-4.41828 -5.32355,-8.03324 -5.40684,-8.03324 -0.0833,0 -0.15142,3.61946 -0.15142,8.04323 v 8.04322 h -1.1618 -1.1618 z"
   id="path1176" /><path
   style="fill:#ffffff;stroke-width:0.178738"
   d="m 384.39158,424.19798 c 0.77902,-2.04385 2.52205,-6.63448 3.87339,-10.2014 l 2.45699,-6.48532 1.40494,0.0507 1.40495,0.0507 3.7472,9.2944 c 2.06096,5.11191 3.90085,9.67644 4.08865,10.1434 l 0.34145,0.849 h -1.41165 -1.41165 l -0.55921,-1.47459 c -0.30756,-0.81102 -0.84572,-2.21859 -1.19591,-3.12792 l -0.63671,-1.65333 h -4.31942 -4.31943 l -1.09283,3.08324 -1.09283,3.08323 -1.34716,0.0519 -1.34716,0.052 z m 11.24569,-4.68777 c 0,-0.092 -0.63764,-1.88167 -1.41698,-3.97693 -0.77933,-2.09526 -1.55662,-4.31227 -1.72731,-4.92668 -0.17069,-0.61441 -0.36289,-1.11711 -0.4271,-1.11711 -0.0642,0 -0.26249,0.62335 -0.4406,1.38522 -0.17811,0.76187 -0.91671,2.98871 -1.64133,4.94853 -0.72461,1.95982 -1.31748,3.62879 -1.31748,3.70882 0,0.08 1.56843,0.14551 3.4854,0.14551 2.04649,0 3.4854,-0.0691 3.4854,-0.16736 z"
   id="path1178" /><path
   style="fill:#ffffff;stroke-width:0.178738"
   d="m 404.39544,417.71145 v -10.18809 l 1.29586,0.003 1.29585,0.003 5.27278,8.03848 c 2.90003,4.42116 5.3331,8.03923 5.40683,8.04015 0.0737,9.2e-4 0.13406,-3.61778 0.13406,-8.04155 v -8.04323 h 1.1618 1.1618 v 10.18809 10.18808 l -1.29586,-0.005 -1.29585,-0.005 -5.27278,-8.03735 c -2.90003,-4.42054 -5.3331,-8.03772 -5.40683,-8.03818 -0.0737,-4.6e-4 -0.13406,3.61862 -0.13406,8.04239 v 8.04322 h -1.1618 -1.1618 z"
   id="path1180" /><path
   style="fill:#ffffff;stroke-width:0.178738"
   d="m 431.26288,427.98837 c -2.34481,-0.50971 -3.80576,-1.48951 -5.03996,-3.38011 -2.27626,-3.48689 -2.62275,-8.62464 -0.83546,-12.38817 3.02767,-6.37541 12.71345,-6.82671 15.6241,-0.72799 0.3088,0.64703 0.56145,1.25743 0.56145,1.35646 0,0.099 -0.42226,0.27552 -0.93837,0.39221 -0.51611,0.11669 -1.0698,0.24782 -1.23042,0.2914 -0.20087,0.0545 -0.33005,-0.0722 -0.41376,-0.40574 -0.18689,-0.74462 -0.96177,-1.97091 -1.56743,-2.48054 -0.95671,-0.80501 -1.91248,-1.18288 -3.24633,-1.28343 -3.20671,-0.24175 -5.68277,1.34672 -6.7454,4.32738 -0.59314,1.66375 -0.68012,5.25598 -0.17556,7.25123 0.7823,3.09358 2.64081,4.79327 5.56921,5.09329 2.99854,0.30721 5.42357,-1.25676 6.3508,-4.09584 0.16533,-0.50623 0.31998,-0.94393 0.34366,-0.97267 0.0237,-0.0288 0.58176,0.0831 1.24017,0.24844 1.14805,0.28838 1.19268,0.31982 1.0891,0.76721 -0.2411,1.04143 -1.41219,3.10519 -2.21857,3.9097 -2.02904,2.02434 -5.12849,2.80119 -8.36723,2.09717 z"
   id="path1182" /><path
   style="fill:#ffffff;stroke-width:0.178738"
   d="m 448.80621,417.71145 c 0,-5.6526 0.0226,-7.96503 0.0503,-5.13873 0.0276,2.8263 0.0276,7.45116 0,10.27746 -0.0276,2.8263 -0.0503,0.51387 -0.0503,-5.13873 z"
   id="path1184" /><path
   style="fill:#ffffff;stroke-width:0.178738"
   d="m 453.90596,417.71145 v -10.18809 h 7.2389 7.2389 v 1.1618 1.1618 h -5.98773 -5.98774 v 3.21729 3.21729 h 5.63026 5.63026 v 1.07243 1.07243 h -5.63026 -5.63026 v 3.57477 3.57477 h 6.25585 6.25584 v 1.16179 1.1618 h -7.50701 -7.50701 z"
   id="path1186" /><path
   style="fill:#ffffff;stroke-width:0.178738"
   d="m 446.04147,417.71145 v -10.18809 h 1.34054 1.34054 v 10.18809 10.18808 h -1.34054 -1.34054 z"
   id="path1188" /><path
   style="fill:#ffffff;stroke-width:0.178738"
   d="M 473.03096,417.69861 V 407.4977 l 5.94305,0.0666 c 4.47628,0.0501 6.09744,0.12699 6.56863,0.31136 2.70937,1.06016 4.05585,3.91256 3.23062,6.84375 -0.47661,1.6929 -2.54263,3.3228 -4.60365,3.63187 -0.42451,0.0637 -0.77169,0.16693 -0.77151,0.2295 1.8e-4,0.0626 0.36137,0.34186 0.80264,0.62064 0.44128,0.27879 1.12742,0.8762 1.52475,1.3276 0.62983,0.71552 4.82182,7.05842 4.82182,7.29589 0,0.0487 -0.69391,0.0653 -1.54202,0.0369 l -1.54202,-0.0516 -2.01429,-3.16468 c -2.40358,-3.77631 -3.09706,-4.65378 -4.17911,-5.28791 -0.75853,-0.44453 -0.99547,-0.48406 -3.27711,-0.54671 l -2.45947,-0.0675 v 4.57811 4.57811 h -1.25116 -1.25117 z m 11.76087,-1.76774 c 1.4971,-0.85726 2.06327,-2.78239 1.28879,-4.38226 -0.82023,-1.69436 -2.09926,-2.05563 -7.28535,-2.05777 l -3.26198,-10e-4 v 3.49709 3.49709 l 4.24504,-0.0564 c 4.13257,-0.0549 4.26539,-0.068 5.0135,-0.49642 z"
   id="path1190" /><path
   style="fill:#ffffff;stroke-width:0.178738"
   d="m 500.19918,427.977 c -3.39146,-0.73443 -6.13648,-3.47955 -7.09722,-7.09747 -0.3901,-1.46903 -0.38108,-4.62118 0.018,-6.28445 1.26005,-5.25189 5.89405,-8.22132 11.29145,-7.23548 3.31684,0.60583 6.06323,3.23872 7.16246,6.86645 0.4986,1.64554 0.46378,5.47518 -0.065,7.14953 -1.58437,5.01668 -6.1964,7.70871 -11.30965,6.60142 z m 3.58881,-2.04625 c 2.70918,-0.51379 4.72735,-2.63637 5.35077,-5.6276 0.49048,-2.35339 0.16168,-5.69408 -0.73304,-7.44788 -0.54716,-1.07252 -1.98481,-2.42451 -3.15972,-2.97144 -0.88201,-0.41059 -1.26238,-0.4777 -2.72322,-0.48048 -1.24269,-0.002 -1.93766,0.0879 -2.5917,0.33673 -1.9847,0.75498 -3.36442,2.25928 -4.04684,4.41224 -0.46852,1.4781 -0.63693,4.40505 -0.3405,5.91767 0.82618,4.21587 4.21494,6.6249 8.24425,5.86076 z"
   id="path1192" /><path
   style="fill:#ffffff;stroke-width:0.178738"
   d="m 521.00921,427.99515 c -0.69529,-0.12627 -1.63439,-0.39336 -2.08689,-0.59352 -0.94661,-0.41873 -2.32923,-1.62979 -2.90057,-2.54065 -0.48747,-0.77715 -0.98729,-2.22923 -0.98729,-2.86826 0,-0.41696 0.0892,-0.49574 0.67027,-0.59178 1.4166,-0.23415 1.6021,-0.17573 1.73773,0.54723 0.19033,1.01456 0.72144,1.91606 1.54323,2.61949 1.13217,0.96909 2.2249,1.27638 4.53884,1.27638 1.79952,0 2.05399,-0.0431 3.00298,-0.50913 1.36299,-0.66928 1.98893,-1.57297 1.98893,-2.87147 0,-2.03457 -1.17959,-2.847 -5.8375,-4.02052 -4.4296,-1.116 -6.06725,-2.16695 -6.68933,-4.29284 -1.09311,-3.73553 2.08416,-6.99148 6.81284,-6.98155 4.02561,0.008 6.90908,2.01928 7.40634,5.1649 l 0.14378,0.90956 h -0.94175 c -0.51796,0 -1.06897,0.0488 -1.22447,0.10849 -0.2083,0.0799 -0.28319,-0.002 -0.28447,-0.31279 -9.7e-4,-0.23171 -0.19274,-0.83145 -0.42616,-1.33276 -0.71897,-1.54407 -2.07724,-2.21644 -4.47743,-2.21644 -3.36501,0 -5.24374,1.45959 -4.74204,3.68409 0.31863,1.41275 1.38187,1.95704 6.02169,3.08262 4.6861,1.1368 6.43965,2.58536 6.62495,5.47269 0.11339,1.76695 -0.26114,2.8453 -1.43395,4.12853 -1.87879,2.0557 -4.81965,2.79884 -8.45973,2.13773 z"
   id="path1194" /><path
   style="fill:#ffffff;stroke-width:0.178738"
   d="m 543.09638,417.69594 v -10.2036 l 5.4962,0.061 5.49621,0.061 1.12752,0.51978 c 2.14168,0.98733 3.16328,2.72869 3.15444,5.37694 -0.007,2.23237 -0.94751,3.9935 -2.67574,5.01283 -1.28381,0.75721 -2.7167,0.96938 -6.56621,0.97226 l -3.53008,0.003 v 4.20035 4.20035 h -1.25117 -1.25117 z m 10.36173,-0.76959 c 0.99976,-0.37453 1.56784,-0.89004 1.99087,-1.80661 0.88487,-1.91725 -0.0557,-4.61059 -1.77706,-5.0887 -0.36056,-0.10015 -2.32453,-0.18253 -4.36438,-0.18308 l -3.70882,-10e-4 v 3.77438 3.77437 l 3.53008,-0.085 c 2.702,-0.065 3.71756,-0.15521 4.32931,-0.38438 z"
   id="path1196" /><path
   style="fill:#ffffff;stroke-width:0.178738"
   d="m 560.1618,427.58674 c 0.0679,-0.17203 1.75886,-4.61592 3.75759,-9.87529 1.99874,-5.25938 3.68965,-9.70326 3.75759,-9.87529 0.10269,-0.26001 0.35508,-0.3128 1.49555,-0.3128 h 1.37203 l 4.06228,10.05404 c 2.23425,5.52971 4.06142,10.11773 4.06037,10.1956 -10e-4,0.0779 -0.61805,0.11808 -1.37111,0.0894 l -1.36921,-0.0522 -1.17543,-3.08323 -1.17543,-3.08324 h -4.31988 -4.31989 l -0.55736,1.54035 c -0.30655,0.84719 -0.80683,2.25475 -1.11174,3.12792 l -0.55438,1.58757 h -1.33725 c -1.20148,0 -1.32471,-0.0318 -1.21373,-0.31279 z m 12.60514,-7.98369 c 0,-0.041 -0.63281,-1.79039 -1.40625,-3.88756 -0.77344,-2.09717 -1.54379,-4.25541 -1.71189,-4.7961 -0.1681,-0.54068 -0.3415,-1.09511 -0.38533,-1.23206 -0.12952,-0.4046 -0.24705,-0.14242 -0.60268,1.34439 -0.1851,0.77382 -0.90536,2.94349 -1.60059,4.82149 -0.69523,1.878 -1.26405,3.50676 -1.26405,3.61945 0,0.14705 0.98421,0.20491 3.48539,0.20491 1.91697,0 3.4854,-0.0335 3.4854,-0.0745 z"
   id="path1198" /><path
   style="fill:#ffffff;stroke-width:0.178738"
   d="M 581.52512,417.69861 V 407.4977 l 5.94305,0.0576 c 5.81883,0.0564 5.96277,0.0665 6.88668,0.48396 1.16066,0.52438 2.40467,1.86145 2.79342,3.00237 0.15651,0.45932 0.28377,1.40393 0.28281,2.09914 -0.004,2.65604 -1.60183,4.46774 -4.51139,5.11417 -0.56526,0.12559 -1.02775,0.28242 -1.02775,0.34853 0,0.0661 0.39631,0.377 0.88069,0.69086 0.48438,0.31387 1.19879,0.95077 1.58757,1.41533 0.59652,0.71278 2.80256,4.05567 4.30242,6.51959 l 0.40801,0.67027 -1.57854,-0.006 -1.57854,-0.006 -1.96612,-3.15409 c -1.99449,-3.19962 -3.45228,-5.01604 -4.45256,-5.54794 -0.40977,-0.2179 -1.18573,-0.31264 -3.00976,-0.36746 l -2.45766,-0.0739 v 4.57811 4.57811 h -1.25116 -1.25117 z m 10.94217,-1.42493 c 2.39559,-0.66533 3.23494,-3.8425 1.47079,-5.56742 -0.99574,-0.97359 -1.54901,-1.08301 -5.9337,-1.17349 l -3.97693,-0.0821 v 3.50479 3.50479 l 3.88756,-10e-4 c 2.13816,-5.5e-4 4.18668,-0.0841 4.55228,-0.18561 z"
   id="path1200" /><path
   style="fill:#ffffff;stroke-width:0.178738"
   d="m 599.98217,427.67611 c 0.0469,-0.12288 1.67285,-4.4059 3.61326,-9.51782 1.9404,-5.11191 3.64867,-9.59601 3.79615,-9.96466 l 0.26815,-0.67027 h 1.37103 1.37104 l 3.96779,9.8753 c 2.18228,5.43141 4.01837,10.01605 4.08019,10.18808 0.10099,0.28102 -0.0303,0.31255 -1.29193,0.3104 l -1.40434,-0.002 -1.1618,-3.12464 -1.1618,-3.12463 -4.32156,-9e-4 -4.32157,-8.9e-4 -0.34435,0.93838 c -0.18939,0.51611 -0.69788,1.9235 -1.12996,3.12755 l -0.7856,2.18917 -1.31498,3.6e-4 c -0.9784,2.9e-4 -1.29315,-0.0568 -1.22972,-0.22304 z m 12.5595,-8.31133 c -0.59408,-1.52112 -3.12007,-8.52558 -3.29363,-9.13306 -0.1221,-0.42737 -0.25966,-0.73937 -0.3057,-0.69334 -0.046,0.046 -0.27585,0.79787 -0.51072,1.67073 -0.33301,1.23765 -1.96783,5.88389 -2.86965,8.15567 -0.11578,0.29167 0.11974,0.31279 3.48885,0.31279 3.36834,0 3.60474,-0.0212 3.49085,-0.31279 z"
   id="path1202" /><path
   style="fill:#ffffff;stroke-width:0.178738"
   d="m 635.56078,427.98837 c -2.36523,-0.51414 -3.8159,-1.48389 -5.04743,-3.37411 -1.429,-2.19332 -2.10409,-4.99713 -1.92024,-7.97524 0.12318,-1.99531 0.45383,-3.21304 1.32513,-4.88023 2.59453,-4.96447 10.17685,-6.18057 14.0085,-2.24677 0.75167,0.77171 1.94417,2.82024 1.94417,3.33977 0,0.14453 -2.38376,0.83295 -2.40694,0.69512 -0.003,-0.0197 -0.29171,-0.59792 -0.64087,-1.28495 -1.08732,-2.13942 -2.89058,-3.10058 -5.43338,-2.89604 -1.72225,0.13854 -2.79931,0.55182 -3.81274,1.46297 -1.6873,1.51703 -2.36414,3.47271 -2.35997,6.81899 0.005,4.32992 1.13876,6.61968 3.90815,7.89574 0.83857,0.3864 1.27085,0.46421 2.61671,0.47101 1.46956,0.007 1.71766,-0.0438 2.80417,-0.57855 1.3772,-0.67788 2.21847,-1.67068 2.85074,-3.36423 0.21637,-0.57956 0.40919,-1.07726 0.42849,-1.106 0.0193,-0.0288 0.57379,0.0831 1.2322,0.24844 1.14805,0.28838 1.19269,0.31982 1.08911,0.76721 -0.2452,1.05914 -1.38107,3.04013 -2.22984,3.88889 -2.05936,2.05936 -5.09081,2.82774 -8.35596,2.11798 z"
   id="path1204" /><path
   style="fill:#ffffff;stroke-width:0.178738"
   d="m 649.98189,417.69698 v -10.20255 l 6.03242,0.0595 c 5.85168,0.0577 6.0592,0.0718 6.92611,0.47047 1.8671,0.85862 2.94806,2.47372 3.08849,4.61464 0.19969,3.04446 -1.66457,5.19094 -4.96709,5.71903 -0.82758,0.13234 -0.89528,0.28543 -0.25519,0.57708 1.34681,0.61364 2.46969,1.93336 4.81388,5.65773 0.86626,1.37629 1.6926,2.68331 1.8363,2.9045 l 0.26129,0.40216 -1.58452,-0.005 -1.58451,-0.005 -1.96613,-3.14927 c -2.00221,-3.2071 -3.46183,-5.02868 -4.45255,-5.55673 -0.41468,-0.22102 -1.18616,-0.3124 -3.09914,-0.36706 l -2.54702,-0.0728 v 4.5777 4.5777 h -1.25117 -1.25117 z m 11.12091,-1.4233 c 2.34026,-0.64996 3.1789,-3.58335 1.55366,-5.4344 -0.97608,-1.1117 -1.70182,-1.26042 -6.15062,-1.26042 h -3.93224 l -0.0486,3.44071 -0.0485,3.44071 3.98079,-0.001 c 2.18943,-5.5e-4 4.27991,-0.0841 4.6455,-0.18561 z"
   id="path1206" /><path
   style="fill:#ffffff;stroke-width:0.178738"
   d="m 670.71554,417.71145 v -10.18809 h 7.2389 7.2389 v 1.1618 1.1618 h -5.98773 -5.98774 v 3.21729 3.21729 h 5.63026 5.63026 v 1.07243 1.07243 h -5.63026 -5.63026 v 3.57477 3.57477 h 6.25585 6.25584 v 1.16179 1.1618 h -7.50701 -7.50701 z"
   id="path1208" /><path
   style="fill:#ffffff;stroke-width:0.178738"
   d="m 696.27512,428.05695 c -1.51116,-0.2433 -3.40355,-1.25577 -4.39197,-2.3498 -1.03616,-1.14688 -2.13253,-3.37182 -2.48673,-5.04652 -0.62217,-2.94163 -0.20916,-6.58877 1.00383,-8.86456 0.72554,-1.36126 2.48583,-3.01558 3.94685,-3.70924 2.6433,-1.25499 5.98215,-1.21623 8.39583,0.0975 1.47921,0.80508 3.1025,2.80521 3.61057,4.44873 0.103,0.33319 0.005,0.39775 -0.91523,0.60369 -0.56681,0.12683 -1.11099,0.26036 -1.2093,0.29673 -0.0983,0.0364 -0.40316,-0.41682 -0.67745,-1.00708 -0.59666,-1.28397 -1.49734,-2.2307 -2.61323,-2.74683 -1.20491,-0.55731 -4.02425,-0.53802 -5.28876,0.0362 -2.5912,1.17665 -3.91569,3.81964 -3.91203,7.80636 0.003,3.1975 0.68639,5.33295 2.15389,6.7298 2.40933,2.29334 6.54978,2.30871 8.64828,0.0321 0.73391,-0.79619 1.59492,-2.38719 1.59819,-2.95316 0.003,-0.48955 0.27244,-0.52787 1.51595,-0.21551 1.37239,0.34473 1.36123,0.23823 0.26299,2.51024 -1.69672,3.51013 -5.13866,5.05638 -9.64168,4.3314 z"
   id="path1210" /><path
   style="fill:#ffffff;stroke-width:0.178738"
   d="m 710.57418,417.71145 v -10.18809 h 7.2389 7.23891 v 1.1618 1.1618 h -5.98774 -5.98773 v 3.21729 3.21729 h 5.63026 5.63025 v 1.07243 1.07243 h -5.63025 -5.63026 v 3.57477 3.57477 h 6.25584 6.25584 v 1.16179 1.1618 h -7.50701 -7.50701 z"
   id="path1212" /><path
   style="fill:#ffffff;stroke-width:0.178738"
   d="m 729.69918,417.71145 v -10.18809 h 5.32933 c 3.03177,0 5.78655,0.083 6.38989,0.19253 2.09333,0.38001 3.40892,1.56046 4.03923,3.62433 1.02935,3.3705 -0.77003,6.19059 -4.4413,6.96065 -0.52268,0.10963 -0.95032,0.24487 -0.95032,0.30052 0,0.0557 0.2868,0.25565 0.63734,0.44443 1.08372,0.58362 2.58513,2.41465 4.67421,5.70039 l 2.00489,3.15332 h -1.57583 -1.57583 l -2.11751,-3.35134 c -2.45832,-3.89073 -3.64961,-5.22963 -4.94155,-5.55383 -0.46133,-0.11576 -1.76836,-0.21048 -2.9045,-0.21048 h -2.06571 v 4.55783 4.55782 h -1.25117 -1.25117 z m 11.27386,-1.52398 c 0.42528,-0.15005 0.92654,-0.41146 1.11392,-0.5809 1.30779,-1.18266 1.36075,-3.83078 0.0998,-4.99144 -0.96864,-0.89161 -1.5829,-1.0046 -5.91896,-1.0888 l -4.0663,-0.0789 v 3.50645 3.50645 h 3.99914 c 3.12856,0 4.16747,-0.0594 4.77238,-0.27281 z"
   id="path1214" /></svg>
